<svg width="32" height="35" viewBox="0 0 32 35" fill="none" xmlns="http://www.w3.org/2000/svg">
<path d="M22.7067 21.9112V13.8613" stroke="#9F8DD8" stroke-width="2" stroke-linecap="round" stroke-linejoin="round"/>
<path d="M25.8908 26.5272L28.0001 22.0125L22.7081 13.8613L17.4148 22.0125L19.5241 26.5272" stroke="#9F8DD8" stroke-width="2" stroke-linecap="round" stroke-linejoin="round"/>
<path fill-rule="evenodd" clip-rule="evenodd" d="M19.5242 26.5264H25.8908V30.7483H19.5242L19.5242 26.5264Z" stroke="#9F8DD8" stroke-width="2" stroke-linecap="round" stroke-linejoin="round"/>
<path d="M19.7921 6.39746C14.5534 7.77523 10.6667 12.7571 10.6667 18.7115" stroke="#9F8DD8" stroke-width="2"/>
<path d="M20.3333 6.4021L8 6.38803" stroke="#9F8DD8" stroke-width="2" stroke-linecap="round" stroke-linejoin="round"/>
<path fill-rule="evenodd" clip-rule="evenodd" d="M6 8.50516V8.50516C4.896 8.50516 4 7.55944 4 6.39418V6.39418C4 5.22892 4.896 4.2832 6 4.2832V4.2832C7.104 4.2832 8 5.22892 8 6.39418V6.39418C8 7.56085 7.104 8.50516 6 8.50516Z" stroke="#9F8DD8" stroke-width="2" stroke-linecap="round" stroke-linejoin="round"/>
<path fill-rule="evenodd" clip-rule="evenodd" d="M23.6666 8.93539H21.6666C20.9306 8.93539 20.3333 8.30491 20.3333 7.52807V5.41709C20.3333 4.64025 20.9306 4.00977 21.6666 4.00977H23.6666C24.4026 4.00977 24.9999 4.64025 24.9999 5.41709V7.52807C24.9999 8.30491 24.4026 8.93539 23.6666 8.93539Z" stroke="#9F8DD8" stroke-width="2" stroke-linecap="round" stroke-linejoin="round"/>
<path fill-rule="evenodd" clip-rule="evenodd" d="M11.6666 23.6366H9.66659C8.93059 23.6366 8.33325 23.0061 8.33325 22.2292V20.1183C8.33325 19.3414 8.93059 18.7109 9.66659 18.7109H11.6666C12.4026 18.7109 12.9999 19.3414 12.9999 20.1183V22.2292C12.9999 23.0075 12.4026 23.6366 11.6666 23.6366Z" stroke="#9F8DD8" stroke-width="2" stroke-linecap="round" stroke-linejoin="round"/>
</svg>
