<svg width="89" height="24" viewBox="0 0 89 24" fill="none" xmlns="http://www.w3.org/2000/svg">
<path d="M6.5 9H14M17.07 15H14M18 19H6C4.343 19 3 17.657 3 16V8C3 6.343 4.343 5 6 5H18C19.657 5 21 6.343 21 8V16C21 17.657 19.657 19 18 19Z" stroke="url(#paint0_radial_5800_10995)" stroke-width="1.5" stroke-linecap="round" stroke-linejoin="round"/>
<path d="M31.15 16.5H29.582V7.358H36.932V8.758H31.15V11.026H34.664V12.426H31.15V16.5ZM39.8762 16.5H38.4342V6.7H39.8762V16.5ZM42.7063 11.572L42.2023 10.382C42.8183 10.004 44.0223 9.514 45.4083 9.514C46.9343 9.514 48.4743 10.018 48.4743 11.502V15.282C48.4743 15.632 48.5023 16.136 48.6563 16.5H47.2003C47.1163 16.304 47.0603 15.926 47.0323 15.66C46.5003 16.122 45.7583 16.64 44.4563 16.64C42.8463 16.64 41.7963 15.688 41.7963 14.316C41.7963 13.112 42.9023 12.146 44.9183 12.146C45.6603 12.146 46.5563 12.314 47.0323 12.664V11.922C47.0323 11.096 46.3043 10.746 45.3383 10.746C44.2883 10.746 43.1823 11.236 42.7063 11.572ZM44.7643 15.436C46.0243 15.436 46.8923 14.624 47.0323 14.47V13.784C46.7243 13.56 46.0103 13.28 45.1563 13.28C43.7423 13.28 43.2523 13.728 43.2523 14.316C43.2523 14.946 43.7983 15.436 44.7643 15.436ZM52.2749 16.5H50.8329V9.738H52.2749V16.5ZM50.6369 7.54C50.6369 7.078 51.0289 6.7 51.5469 6.7C52.0649 6.7 52.4709 7.092 52.4709 7.54C52.4709 8.002 52.0649 8.366 51.5469 8.366C51.0289 8.366 50.6369 8.002 50.6369 7.54ZM57.6144 10.928C56.9704 10.928 56.5224 11.53 56.1444 12.076V16.5H54.7024V11.586C54.7024 10.984 54.6464 10.382 54.5204 9.738H55.8504C55.9344 10.13 55.9624 10.424 55.9904 10.872C56.4384 10.186 56.9704 9.514 57.9504 9.514C58.3424 9.514 58.7204 9.612 58.9024 9.794L58.4684 11.138C58.2724 11.012 57.8244 10.928 57.6144 10.928ZM65.945 10.62L64.979 11.586C64.447 11.054 63.719 10.788 63.047 10.788C61.927 10.788 61.017 11.698 61.017 13.098C61.017 14.526 61.969 15.436 63.131 15.436C63.971 15.436 64.643 15.016 65.147 14.512L66.113 15.422C65.833 15.758 64.755 16.71 62.991 16.71C61.073 16.71 59.435 15.296 59.435 13.098C59.435 10.942 61.059 9.514 63.047 9.514C64.083 9.514 65.133 9.864 65.945 10.62ZM68.1634 11.572L67.6594 10.382C68.2754 10.004 69.4794 9.514 70.8654 9.514C72.3914 9.514 73.9314 10.018 73.9314 11.502V15.282C73.9314 15.632 73.9594 16.136 74.1134 16.5H72.6574C72.5734 16.304 72.5174 15.926 72.4894 15.66C71.9574 16.122 71.2154 16.64 69.9134 16.64C68.3034 16.64 67.2534 15.688 67.2534 14.316C67.2534 13.112 68.3594 12.146 70.3754 12.146C71.1174 12.146 72.0134 12.314 72.4894 12.664V11.922C72.4894 11.096 71.7614 10.746 70.7954 10.746C69.7454 10.746 68.6394 11.236 68.1634 11.572ZM70.2214 15.436C71.4814 15.436 72.3494 14.624 72.4894 14.47V13.784C72.1814 13.56 71.4674 13.28 70.6134 13.28C69.1994 13.28 68.7094 13.728 68.7094 14.316C68.7094 14.946 69.2554 15.436 70.2214 15.436ZM79.2159 10.928C78.5719 10.928 78.1239 11.53 77.7459 12.076V16.5H76.3039V11.586C76.3039 10.984 76.2479 10.382 76.1219 9.738H77.4519C77.5359 10.13 77.5639 10.424 77.5919 10.872C78.0399 10.186 78.5719 9.514 79.5519 9.514C79.9439 9.514 80.3219 9.612 80.5039 9.794L80.0699 11.138C79.8739 11.012 79.4259 10.928 79.2159 10.928ZM87.8859 16.5H86.5559C86.4859 16.206 86.4579 15.856 86.4579 15.562C86.1639 16.01 85.3239 16.71 84.2319 16.71C82.4119 16.71 80.9139 15.296 80.9139 13.098C80.9139 10.942 82.4259 9.514 84.2319 9.514C84.9879 9.514 85.7159 9.836 86.3179 10.424V6.7H87.7599V14.638C87.7599 15.226 87.7599 15.856 87.8859 16.5ZM84.3719 10.788C83.3359 10.788 82.5099 11.698 82.5099 13.098C82.5099 14.526 83.3499 15.45 84.3719 15.45C85.4079 15.45 86.0939 14.778 86.3179 14.498V11.726C85.7579 11.152 85.0719 10.788 84.3719 10.788Z" fill="url(#paint1_radial_5800_10995)"/>
<defs>
<radialGradient id="paint0_radial_5800_10995" cx="0" cy="0" r="1" gradientUnits="userSpaceOnUse" gradientTransform="translate(22 12) rotate(-180) scale(24.5 31.5)">
<stop stop-color="white"/>
<stop offset="1" stop-color="#573CAE"/>
</radialGradient>
<radialGradient id="paint1_radial_5800_10995" cx="0" cy="0" r="1" gradientUnits="userSpaceOnUse" gradientTransform="translate(92 12) rotate(180) scale(64 25.616)">
<stop stop-color="#573CAE"/>
<stop offset="1" stop-color="white"/>
</radialGradient>
</defs>
</svg>
