<svg width="16" height="17" viewBox="0 0 16 17" fill="none" xmlns="http://www.w3.org/2000/svg">
<path fill-rule="evenodd" clip-rule="evenodd" d="M8 14.5V14.5C4.686 14.5 2 11.814 2 8.5V8.5C2 5.186 4.686 2.5 8 2.5V2.5C11.314 2.5 14 5.186 14 8.5V8.5C14 11.814 11.314 14.5 8 14.5Z" stroke="white" stroke-linecap="round" stroke-linejoin="round"/>
<path d="M7.99967 11.8333V8.5H7.33301" stroke="white" stroke-linecap="round" stroke-linejoin="round"/>
<path d="M7.83267 5.83341C7.74067 5.83341 7.666 5.90808 7.66667 6.00008C7.66667 6.09208 7.74134 6.16675 7.83334 6.16675C7.92534 6.16675 8 6.09208 8 6.00008C8 5.90808 7.92534 5.83341 7.83267 5.83341" stroke="white" stroke-linecap="round" stroke-linejoin="round"/>
</svg>
